<svg width="16" height="17" viewBox="0 0 16 17" fill="none" xmlns="http://www.w3.org/2000/svg">
<path d="M14.8169 0.611451H1.18313C1.02987 0.609335 0.877699 0.637249 0.735296 0.693597C0.592893 0.749945 0.463053 0.833624 0.353189 0.939856C0.243325 1.04609 0.15559 1.17279 0.0949952 1.31273C0.0344 1.45267 0.00213121 1.6031 3.19004e-05 1.75544V15.4672C0.00213121 15.6196 0.0344 15.77 0.0949952 15.91C0.15559 16.0499 0.243325 16.1766 0.353189 16.2828C0.463053 16.3891 0.592893 16.4727 0.735296 16.5291C0.877699 16.5854 1.02987 16.6133 1.18313 16.6112H14.8169C14.9702 16.6133 15.1224 16.5854 15.2648 16.5291C15.4072 16.4727 15.537 16.3891 15.6469 16.2828C15.7567 16.1766 15.8445 16.0499 15.9051 15.91C15.9657 15.77 15.9979 15.6196 16 15.4672V1.75544C15.9979 1.6031 15.9657 1.45267 15.9051 1.31273C15.8445 1.17279 15.7567 1.04609 15.6469 0.939856C15.537 0.833624 15.4072 0.749945 15.2648 0.693597C15.1224 0.637249 14.9702 0.609335 14.8169 0.611451ZM4.85315 14.0033H2.43866V6.80336H4.85315V14.0033ZM3.64591 5.79538C3.31292 5.79538 2.99357 5.6639 2.75811 5.42985C2.52265 5.19581 2.39037 4.87838 2.39037 4.5474C2.39037 4.21641 2.52265 3.89898 2.75811 3.66494C2.99357 3.4309 3.31292 3.29941 3.64591 3.29941C3.82272 3.27948 4.00178 3.2969 4.17136 3.35052C4.34094 3.40414 4.49721 3.49276 4.62994 3.61058C4.76267 3.72839 4.86887 3.87275 4.94158 4.03419C5.01429 4.19563 5.05188 4.37052 5.05188 4.5474C5.05188 4.72428 5.01429 4.89916 4.94158 5.0606C4.86887 5.22204 4.76267 5.3664 4.62994 5.48421C4.49721 5.60203 4.34094 5.69065 4.17136 5.74427C4.00178 5.7979 3.82272 5.81531 3.64591 5.79538ZM13.5614 14.0033H11.1469V10.1393C11.1469 9.17133 10.8008 8.53934 9.92357 8.53934C9.65207 8.54132 9.38771 8.62596 9.1661 8.78187C8.94448 8.93779 8.77628 9.15747 8.68414 9.41133C8.62115 9.59936 8.59386 9.79738 8.60365 9.99532V13.9953H6.18917C6.18917 13.9953 6.18917 7.45136 6.18917 6.79536H8.60365V7.81135C8.82299 7.43304 9.14201 7.12138 9.52634 6.90993C9.91068 6.69847 10.3458 6.59525 10.7847 6.61137C12.3944 6.61137 13.5614 7.64335 13.5614 9.85932V14.0033Z" fill="#2B3559"/>
</svg>
