<svg width="12" height="12" viewBox="0 0 12 12" fill="none" xmlns="http://www.w3.org/2000/svg">
<path id="Vector" d="M5.655 9.155C5.21 9.155 4.785 9.055 4.405 8.88C5.435 8.405 6.155 7.365 6.155 6.155C6.155 4.945 5.435 3.905 4.405 3.43C4.785 3.255 5.21 3.155 5.655 3.155C6.45065 3.155 7.21371 3.47107 7.77632 4.03368C8.33893 4.59629 8.655 5.35935 8.655 6.155C8.655 6.95065 8.33893 7.71371 7.77632 8.27632C7.21371 8.83893 6.45065 9.155 5.655 9.155ZM9.655 4.5V2.155H7.31L5.655 0.5L4 2.155H1.655V4.5L0 6.155L1.655 7.81V10.155H4L5.655 11.81L7.31 10.155H9.655V7.81L11.31 6.155L9.655 4.5Z" fill="#33C4CB"/>
</svg>
