<svg width="20" height="15" viewBox="0 0 20 15" fill="none" xmlns="http://www.w3.org/2000/svg">
<path d="M17.5322 2.35954C15.0814 0.561301 12.7336 0.611676 12.7336 0.611676L12.4936 0.880483C15.4071 1.73769 16.761 2.99811 16.761 2.99811C12.5928 0.747525 7.28324 0.763629 2.94761 2.99811C2.94761 2.99811 4.35289 1.67039 7.43776 0.813178L7.26639 0.61147C7.26639 0.61147 4.93563 0.561094 2.46782 2.35934C2.46782 2.35934 0 6.71228 0 12.0736C0 12.0736 1.43959 14.4936 5.22721 14.6113C5.22721 14.6113 5.86133 13.8718 6.37544 13.2332C4.19878 12.5947 3.37625 11.2669 3.37625 11.2669C4.74363 12.106 6.12638 12.6312 7.84935 12.9644C10.6527 13.5303 14.1397 12.9485 16.744 11.2669C16.744 11.2669 15.8871 12.6283 13.642 13.2502C14.1561 13.872 14.7732 14.5946 14.7732 14.5946C18.5604 14.4771 20 12.057 20 12.0738C20 6.71248 17.5322 2.35954 17.5322 2.35954ZM6.80365 10.5109C5.84385 10.5109 5.05563 9.68733 5.05563 8.66206C5.12574 6.20687 8.49925 6.21451 8.55188 8.66206C8.55167 9.68733 7.7805 10.5109 6.80365 10.5109ZM13.0591 10.5109C12.0993 10.5109 11.3111 9.68733 11.3111 8.66206C11.3881 6.21162 14.7195 6.21059 14.8073 8.66206C14.8071 9.68733 14.0359 10.5109 13.0591 10.5109Z" fill="#2B3559"/>
</svg>
