<svg width="200" height="48" viewBox="0 0 200 48" fill="none" xmlns="http://www.w3.org/2000/svg">
<g id="Logo">
<g id="BICHINHOS DA TI">
<path id="Vector" d="M197.821 18.2245H200V28.9007H197.821V18.2245Z" fill="#F76B00"/>
<path id="Vector_2" d="M190.092 20.1234H186.15V18.2245H196.198V20.1234H192.257V28.9007H190.092V20.1234Z" fill="#F76B00"/>
<path id="Vector_3" d="M173.95 18.2245H176.245L181.409 28.9007H179.135L178.281 27.1043H172.044L171.218 28.9007H168.937L173.95 18.2245ZM177.427 25.3215L175.118 20.4718L172.871 25.3215H177.427Z" fill="#F76B00"/>
<path id="Vector_4" d="M157.929 18.2245H161.843C162.986 18.2245 163.978 18.3474 164.821 18.5933C165.663 18.8392 166.36 19.1922 166.911 19.6521C167.467 20.1075 167.879 20.663 168.147 21.3187C168.421 21.9699 168.557 22.7031 168.557 23.5182C168.557 24.2923 168.423 25.0096 168.154 25.6698C167.885 26.3256 167.476 26.8948 166.925 27.3775C166.374 27.8556 165.677 28.2313 164.834 28.5045C163.992 28.7732 162.999 28.9075 161.856 28.9075L157.929 28.9007V18.2245ZM162.375 27.0291C163.022 27.0291 163.589 26.9472 164.076 26.7832C164.564 26.6147 164.969 26.3779 165.292 26.0728C165.62 25.7677 165.866 25.3989 166.03 24.9663C166.194 24.5337 166.276 24.051 166.276 23.5182C166.276 22.9945 166.194 22.5232 166.03 22.1043C165.866 21.6808 165.62 21.3233 165.292 21.0319C164.969 20.7359 164.564 20.5082 164.076 20.3488C163.589 20.1894 163.022 20.1097 162.375 20.1097H160.094V27.0291H162.375Z" fill="#F76B00"/>
<path id="Vector_5" d="M140.633 25.7245C141.02 25.9431 141.412 26.1412 141.808 26.3188C142.208 26.4918 142.623 26.6398 143.051 26.7628C143.479 26.8812 143.928 26.9722 144.397 27.036C144.87 27.0997 145.373 27.1316 145.906 27.1316C146.548 27.1316 147.095 27.0906 147.545 27.0087C147.996 26.9221 148.363 26.806 148.645 26.6603C148.932 26.51 149.139 26.3324 149.267 26.1275C149.399 25.9226 149.465 25.6995 149.465 25.4581C149.465 25.071 149.303 24.7659 148.98 24.5428C148.657 24.3151 148.158 24.2013 147.484 24.2013C147.188 24.2013 146.876 24.2218 146.548 24.2628C146.22 24.2992 145.888 24.3402 145.551 24.3857C145.218 24.4312 144.888 24.4745 144.56 24.5155C144.237 24.5519 143.932 24.5701 143.645 24.5701C143.167 24.5701 142.707 24.5087 142.265 24.3857C141.828 24.2628 141.439 24.0783 141.097 23.8324C140.76 23.5865 140.492 23.2791 140.291 22.9103C140.091 22.5414 139.991 22.1111 139.991 21.6193C139.991 21.3279 140.03 21.0387 140.107 20.7518C140.189 20.4649 140.316 20.1917 140.489 19.9322C140.667 19.668 140.895 19.4244 141.173 19.2013C141.45 18.9736 141.785 18.7778 142.177 18.6138C142.573 18.4499 143.028 18.3224 143.543 18.2313C144.062 18.1357 144.652 18.0879 145.312 18.0879C145.79 18.0879 146.27 18.1152 146.753 18.1699C147.236 18.2199 147.705 18.2928 148.16 18.3884C148.62 18.4841 149.062 18.6002 149.485 18.7368C149.909 18.8689 150.303 19.0169 150.667 19.1808L149.718 20.9294C149.417 20.7974 149.094 20.6767 148.748 20.5674C148.402 20.4536 148.04 20.3557 147.662 20.2737C147.284 20.1917 146.892 20.128 146.487 20.0824C146.086 20.0323 145.676 20.0073 145.257 20.0073C144.661 20.0073 144.169 20.0506 143.782 20.1371C143.399 20.2236 143.094 20.3352 142.866 20.4718C142.639 20.6038 142.479 20.7541 142.388 20.9226C142.302 21.0865 142.259 21.2505 142.259 21.4144C142.259 21.7332 142.402 21.995 142.689 22.1999C142.976 22.4003 143.413 22.5005 144 22.5005C144.237 22.5005 144.508 22.4845 144.813 22.4526C145.123 22.4162 145.446 22.3775 145.783 22.3365C146.125 22.2955 146.471 22.2591 146.821 22.2272C147.177 22.1908 147.52 22.1726 147.853 22.1726C148.481 22.1726 149.037 22.2432 149.52 22.3843C150.007 22.5255 150.414 22.7281 150.742 22.9923C151.07 23.2518 151.318 23.5683 151.487 23.9417C151.655 24.3106 151.739 24.725 151.739 25.1849C151.739 25.7996 151.596 26.3484 151.309 26.8311C151.027 27.3092 150.622 27.7145 150.093 28.0469C149.57 28.3748 148.937 28.6252 148.194 28.7983C147.452 28.9668 146.626 29.051 145.715 29.051C145.114 29.051 144.526 29.0123 143.953 28.9349C143.379 28.862 142.828 28.7573 142.3 28.6207C141.776 28.4795 141.275 28.3133 140.797 28.122C140.323 27.9262 139.884 27.7122 139.479 27.48L140.633 25.7245Z" fill="#F76B00"/>
<path id="Vector_6" d="M125.937 23.5319C125.937 22.7259 126.085 21.9882 126.381 21.3188C126.677 20.6494 127.091 20.0756 127.624 19.5974C128.161 19.1148 128.803 18.7413 129.55 18.4772C130.301 18.2131 131.132 18.0811 132.043 18.0811C132.949 18.0811 133.778 18.2131 134.529 18.4772C135.281 18.7413 135.923 19.1148 136.456 19.5974C136.993 20.0756 137.41 20.6494 137.706 21.3188C138.002 21.9882 138.15 22.7259 138.15 23.5319C138.15 24.3424 138.002 25.087 137.706 25.7655C137.41 26.4394 136.993 27.02 136.456 27.5073C135.923 27.9945 135.281 28.3748 134.529 28.648C133.778 28.9167 132.949 29.051 132.043 29.051C131.132 29.051 130.301 28.9167 129.55 28.648C128.803 28.3748 128.161 27.9945 127.624 27.5073C127.091 27.02 126.677 26.4394 126.381 25.7655C126.085 25.087 125.937 24.3424 125.937 23.5319ZM128.102 23.5319C128.102 24.0829 128.2 24.5792 128.396 25.0209C128.596 25.4627 128.871 25.8406 129.222 26.1548C129.577 26.4645 129.994 26.7036 130.472 26.872C130.955 27.0405 131.478 27.1248 132.043 27.1248C132.608 27.1248 133.129 27.0405 133.607 26.872C134.09 26.7036 134.507 26.4645 134.857 26.1548C135.208 25.8406 135.483 25.4627 135.684 25.0209C135.884 24.5792 135.984 24.0829 135.984 23.5319C135.984 22.9809 135.884 22.4868 135.684 22.0496C135.483 21.6125 135.208 21.2436 134.857 20.9431C134.507 20.638 134.09 20.4057 133.607 20.2464C133.129 20.087 132.608 20.0073 132.043 20.0073C131.478 20.0073 130.955 20.087 130.472 20.2464C129.994 20.4057 129.577 20.638 129.222 20.9431C128.871 21.2436 128.596 21.6125 128.396 22.0496C128.2 22.4868 128.102 22.9809 128.102 23.5319Z" fill="#F76B00"/>
<path id="Vector_7" d="M112.975 18.2245H115.14V21.0114H121.779V18.2245H123.951V28.9007H121.779V22.8625H115.14V28.9007H112.975V18.2245Z" fill="#F76B00"/>
<path id="Vector_8" d="M99.3984 18.2245H101.564L108.217 21.7081V18.2245H110.382V28.9007H108.217V24.0032L101.564 20.5401V28.9007H99.3984V18.2245Z" fill="#F76B00"/>
<path id="Vector_9" d="M94.8867 18.2245H97.0657V28.9007H94.8867V18.2245Z" fill="#F76B00"/>
<path id="Vector_10" d="M81.5703 18.2245H83.7356V21.0114H90.375V18.2245H92.5471V28.9007H90.375V22.8625H83.7356V28.9007H81.5703V18.2245Z" fill="#F76B00"/>
<path id="Vector_11" d="M68.5059 23.4977C68.5059 22.7373 68.6493 22.0292 68.9362 21.3734C69.2231 20.7131 69.6375 20.1416 70.1794 19.6589C70.7258 19.1717 71.3906 18.7892 72.1739 18.5114C72.9617 18.2336 73.8519 18.0947 74.8447 18.0947C75.7144 18.0947 76.5113 18.1835 77.2354 18.3611C77.964 18.5342 78.6402 18.8006 79.2641 19.1603L78.2668 20.7996C78.0801 20.6767 77.8638 20.5674 77.6179 20.4718C77.3765 20.3761 77.117 20.2965 76.8392 20.2327C76.566 20.1644 76.2814 20.112 75.9854 20.0756C75.6939 20.0392 75.4048 20.021 75.1179 20.021C74.4257 20.021 73.8087 20.1075 73.2668 20.2805C72.7249 20.449 72.2672 20.6881 71.8938 20.9977C71.525 21.3028 71.2427 21.6694 71.0468 22.0975C70.8556 22.521 70.76 22.9877 70.76 23.4977C70.76 24.026 70.8601 24.5109 71.0605 24.9527C71.2609 25.3944 71.55 25.7769 71.928 26.1002C72.3105 26.419 72.775 26.6694 73.3214 26.8516C73.8724 27.0292 74.494 27.118 75.1862 27.118C75.5004 27.118 75.8123 27.0952 76.122 27.0496C76.4316 27.0041 76.7299 26.9426 77.0168 26.8652C77.3082 26.7833 77.5883 26.6876 77.857 26.5783C78.1256 26.4645 78.3761 26.3415 78.6083 26.2095L79.6056 27.8488C79.0227 28.2222 78.3488 28.5159 77.5837 28.73C76.8187 28.9394 76.0059 29.0442 75.1452 29.0442C74.0478 29.0442 73.0846 28.903 72.2559 28.6207C71.4271 28.3338 70.7349 27.9422 70.1794 27.4458C69.6238 26.9449 69.2049 26.3575 68.9225 25.6835C68.6447 25.005 68.5059 24.2764 68.5059 23.4977Z" fill="#F76B00"/>
<path id="Vector_12" d="M64.6289 18.2245H66.8079V28.9007H64.6289V18.2245Z" fill="#F76B00"/>
<path id="Vector_13" d="M52.4805 18.2245H58.184C58.8807 18.2245 59.4864 18.2996 60.001 18.4499C60.5201 18.5956 60.9504 18.7983 61.2919 19.0578C61.6335 19.3174 61.8862 19.627 62.0501 19.9868C62.2186 20.342 62.3029 20.7268 62.3029 21.1412C62.3029 21.8197 62.0888 22.4139 61.6608 22.9239C62.1526 23.2154 62.5192 23.5933 62.7605 24.0578C63.0019 24.5223 63.1225 25.0505 63.1225 25.6425C63.1225 26.1389 63.0383 26.5874 62.8698 26.9881C62.7059 27.3889 62.4531 27.7327 62.1116 28.0196C61.7746 28.3019 61.3466 28.5205 60.8275 28.6753C60.3129 28.8256 59.705 28.9007 59.0037 28.9007H52.4805V18.2245ZM59.0174 22.3228C59.2041 22.3228 59.3862 22.3297 59.5638 22.3433C59.8689 22.0519 60.0215 21.7195 60.0215 21.3461C60.0215 20.959 59.8689 20.6607 59.5638 20.4513C59.2633 20.2372 58.8215 20.1302 58.2387 20.1302H54.6458V22.3228H59.0174ZM59.0583 27.0155C59.6412 27.0155 60.0829 26.8902 60.3835 26.6398C60.6886 26.3893 60.8411 26.0364 60.8411 25.581C60.8411 25.1257 60.6886 24.7705 60.3835 24.5155C60.0829 24.2605 59.6412 24.133 59.0583 24.133H54.6458V27.0155H59.0583Z" fill="#F76B00"/>
</g>
<g id="Identidade">
<path id="Vector_14" d="M35.3059 27.3652C34.1151 25.7139 32.518 24.4697 30.5188 23.6305C29.8045 23.8651 29.0913 24.0997 28.3781 24.3389C27.8821 24.5047 27.3937 24.701 26.9128 24.9108C26.567 25.0619 26.3163 25.3168 26.2514 25.7376C26.2093 26.006 26.0688 26.2316 25.8635 26.4065C25.4205 26.7832 24.7181 26.5836 24.49 26.0354C24.2782 25.5255 24.423 25.0732 24.7451 24.8138C24.9666 24.6355 25.2141 24.6367 25.468 24.6479C26.2255 24.6807 26.7982 24.3366 27.2056 23.6903C27.4207 23.3496 27.3029 22.9312 26.9139 22.7766C26.4319 22.586 25.9294 22.4439 25.4269 22.3243C25.026 22.2284 24.6381 22.3581 24.2739 22.5397C23.9605 22.6965 23.6515 22.7281 23.3576 22.5093C23.0442 22.2769 22.8637 21.9622 22.895 21.5483C22.9275 21.123 23.1825 20.8591 23.538 20.7226C23.8979 20.5838 24.2296 20.7011 24.4836 20.9978C24.8175 21.3869 25.2108 21.678 25.7068 21.7592C26.1704 21.8348 26.6416 21.8641 27.1105 21.8945C27.3386 21.9092 27.4758 21.7242 27.5622 21.5426C27.6336 21.3937 27.6768 21.2042 27.6595 21.0418C27.613 20.6267 27.4898 20.2263 27.2586 19.8811C27.1159 19.6702 26.8912 19.563 26.6524 19.4886C26.3325 19.3893 26.0861 19.1998 25.9964 18.84C25.9024 18.4689 26.0569 18.0493 26.3476 17.8067C26.6696 17.5394 27.0068 17.5665 27.3364 17.7402C27.6822 17.924 27.8248 18.2388 27.8108 18.655C27.774 19.7175 28.1155 20.6211 28.8892 21.3351C29.2891 21.7039 29.7224 21.9949 30.2443 22.1416C30.628 22.2499 30.9964 22.2228 31.3433 22.0953C32.5925 21.308 33.6342 20.3041 34.4674 19.0814C35.7339 17.2191 36.3693 15.0533 36.3693 12.5842C36.3693 8.77048 34.985 5.76441 32.21 3.56485C29.4393 1.3698 25.6863 0.271148 20.9575 0.271148H20.6409C20.254 0.724596 19.8715 1.18256 19.4987 1.64841C18.6579 2.69743 18.0485 3.93483 17.734 5.2681C17.7286 5.29066 17.7254 5.31209 17.72 5.33465C17.694 5.52415 17.667 5.70463 17.6346 5.86819C17.4174 6.97248 17.7016 7.11235 18.6223 7.70341C19.1961 8.07114 19.785 8.42983 20.3026 8.87426C21.3671 9.78905 21.956 10.9847 22.0154 12.4398C22.0306 12.8188 21.8955 13.0918 21.5173 13.2159C20.9489 13.4042 20.6636 13.8295 20.468 14.4239C19.905 16.1339 18.7844 17.3398 17.197 18.0594C16.9279 18.1812 16.7896 18.3335 16.7777 18.6392C16.7507 19.3419 16.7085 20.0447 16.6739 20.7474C16.6696 20.8241 16.6729 20.9019 16.6664 20.9786C16.6242 21.5279 16.4719 21.6328 15.9996 21.3678C15.4172 21.0418 14.8563 20.6729 14.2836 20.3289C14.1972 20.277 14.0588 20.1992 14.0091 20.2342C13.9324 20.2872 13.8816 20.4259 13.8741 20.5319C13.8557 20.7948 13.8784 21.061 13.8643 21.3238C13.8373 21.8359 13.6633 21.9408 13.2073 21.7355C12.2304 21.2956 11.3519 20.6966 10.5609 19.9544C8.86215 18.3606 7.75776 16.3697 7.064 14.1284C6.75062 13.1177 6.4783 12.0789 6.33458 11.031C6.16817 9.81838 6.11846 8.58098 6.10225 7.35374C6.08604 6.10619 6.23625 5.1711 6.17681 3.92468C6.20383 3.90325 6.13359 3.56711 6.1606 3.54568C6.17357 2.65006 5.98878 1.35401 5.89369 0.27002H4.70609C3.20079 0.271148 2.04021 0.697524 1.22326 1.55028C0.406312 2.40303 0 3.61448 0 5.18576V42.8152C0 44.3854 0.406312 45.5979 1.22326 46.4507C2.04021 47.3034 3.20079 47.7298 4.70609 47.7298H9.52348C9.71043 46.8083 10.0843 45.9239 10.6376 45.0779C11.1585 44.2827 11.8166 43.6273 12.5125 43.0058C12.8237 42.7283 13.1198 42.4283 13.3953 42.1125C13.5542 41.9297 13.6795 41.7064 13.7822 41.4819C13.9724 41.0623 13.9875 40.6247 13.713 40.24C13.3964 39.7967 13.0474 39.3782 12.7048 38.9564C12.667 38.9101 12.5795 38.8921 12.5146 38.8887C11.2049 38.8267 9.92872 38.5717 8.68276 38.1589C8.16623 37.9874 7.64429 37.8047 7.16666 37.5419C6.52045 37.1855 6.1606 36.6034 6.21463 35.8014C6.22004 35.7281 6.2222 35.6525 6.23949 35.5815C6.37132 35.0412 6.38213 35.1043 6.80897 35.0885C8.28402 35.0367 9.69746 34.7163 11.0255 34.0215C11.2989 33.8782 11.4437 33.691 11.5291 33.3763C12.0154 31.5918 12.948 30.1187 14.4144 29.0426C15.6722 28.1187 17.0824 27.7172 18.6136 27.7251C20.1189 27.733 21.5594 28.0026 22.868 28.8215C24.2501 29.6855 25.1417 30.9466 25.5101 32.5754C26.0429 34.9351 25.6236 37.12 24.2945 39.1132C24.1216 39.3726 23.9649 39.649 23.833 39.9332C23.5769 40.487 23.7088 40.9913 24.1831 41.3601C24.5959 41.6816 25.0736 41.8429 25.5696 41.9433C27.0652 42.2467 28.5575 42.1474 30.0487 41.8959C31.5789 41.6376 33.0637 41.2056 34.4749 40.5401C35.2368 40.1814 35.9651 39.7448 36.7129 39.3523C37.2154 37.9615 37.4683 36.4241 37.4683 34.7377C37.4683 31.8208 36.7464 29.3618 35.3059 27.3652Z" fill="#F76B00"/>
<path id="Vector_15" d="M17.6636 14.6542C18.1844 14.7569 18.6664 14.414 18.7604 13.8737C18.8576 13.3119 18.5475 12.8089 18.0407 12.7073C17.5079 12.6013 17.0227 12.9702 16.9277 13.5533C16.8477 14.0485 17.1892 14.5595 17.6636 14.6542Z" fill="#F76B00"/>
<path id="Vector_16" d="M14.8757 31.6743C14.3429 31.5682 13.8577 31.9371 13.7626 32.5202C13.6826 33.0154 14.0241 33.5264 14.4985 33.6212C15.0194 33.7238 15.5013 33.3809 15.5953 32.8406C15.6926 32.2789 15.3825 31.7758 14.8757 31.6743Z" fill="#F76B00"/>
</g>
</g>
</svg>
