<svg width="12" height="12" viewBox="0 0 12 12" fill="none" xmlns="http://www.w3.org/2000/svg">
<g id="white-balance-sunny" clip-path="url(#clip0_2622_1285)">
<path id="Vector" d="M1.775 9.545L2.48 10.25L3.38 9.355L2.67 8.645M6 3C4.345 3 3 4.345 3 6C3 7.655 4.345 9 6 9C7.655 9 9 7.655 9 6C9 4.34 7.655 3 6 3ZM10 6.5H11.5V5.5H10M8.62 9.355L9.52 10.25L10.225 9.545L9.33 8.645M10.225 2.5L9.52 1.8L8.62 2.695L9.33 3.405M6.5 0.5H5.5V2H6.5M3.38 2.695L2.48 1.8L1.775 2.5L2.67 3.405L3.38 2.695ZM0.5 6.5H2V5.5H0.5M6.5 10H5.5V11.5H6.5" fill="#F7BC03"/>
</g>
<defs>
<clipPath id="clip0_2622_1285">
<rect width="12" height="12" fill="white"/>
</clipPath>
</defs>
</svg>
